<svg xmlns="http://www.w3.org/2000/svg" viewBox="0 0 512 592" role="img" aria-labelledby="title desc">
  <title id="title">elcf4R hex logo</title>
  <desc id="desc">Hexagonal logo with a stylized electricity load curve, forecast line, and lightning bolt.</desc>
  <defs>
    <linearGradient id="bg" x1="0%" y1="0%" x2="100%" y2="100%">
      <stop offset="0%" stop-color="#14324a"/>
      <stop offset="55%" stop-color="#19556a"/>
      <stop offset="100%" stop-color="#0d6b66"/>
    </linearGradient>
    <linearGradient id="lineMain" x1="0%" y1="0%" x2="100%" y2="0%">
      <stop offset="0%" stop-color="#ffe08a"/>
      <stop offset="100%" stop-color="#ff8f5a"/>
    </linearGradient>
    <linearGradient id="lineForecast" x1="0%" y1="0%" x2="100%" y2="0%">
      <stop offset="0%" stop-color="#9be7ff"/>
      <stop offset="100%" stop-color="#f6fff8"/>
    </linearGradient>
    <filter id="shadow" x="-20%" y="-20%" width="140%" height="140%">
      <feDropShadow dx="0" dy="10" stdDeviation="12" flood-color="#0a1620" flood-opacity="0.28"/>
    </filter>
    <clipPath id="panelClip">
      <path d="M126 148 H386 a18 18 0 0 1 18 18 V392 a18 18 0 0 1 -18 18 H126 a18 18 0 0 1 -18 -18 V166 a18 18 0 0 1 18 -18 z"/>
    </clipPath>
  </defs>

  <path
    d="M256 18 L470 142 L470 390 L256 514 L42 390 L42 142 Z"
    fill="url(#bg)"
    stroke="#f5f7fa"
    stroke-width="18"
    stroke-linejoin="round"
    filter="url(#shadow)"
  />

  <path
    d="M256 48 L444 156 L444 376 L256 484 L68 376 L68 156 Z"
    fill="none"
    stroke="#9bd3e2"
    stroke-opacity="0.28"
    stroke-width="4"
    stroke-linejoin="round"
  />

  <g transform="translate(0 6)">
    <rect x="108" y="148" width="296" height="262" rx="18" fill="#0f2536" fill-opacity="0.64" stroke="#c8f1ff" stroke-opacity="0.18" stroke-width="2"/>

    <g clip-path="url(#panelClip)">
      <g stroke="#c8f1ff" stroke-opacity="0.12" stroke-width="2">
        <path d="M108 192 H404"/>
        <path d="M108 236 H404"/>
        <path d="M108 280 H404"/>
        <path d="M108 324 H404"/>
        <path d="M108 368 H404"/>
        <path d="M145 148 V410"/>
        <path d="M182 148 V410"/>
        <path d="M219 148 V410"/>
        <path d="M256 148 V410"/>
        <path d="M293 148 V410"/>
        <path d="M330 148 V410"/>
        <path d="M367 148 V410"/>
      </g>

      <path
        d="M108 362
           C126 358 138 336 152 298
           C166 260 184 230 198 228
           C214 226 224 278 238 300
           C252 322 268 330 282 284
           C296 238 318 186 334 188
           C350 190 366 256 380 274
           C392 290 398 288 404 284
           L404 410 L108 410 Z"
        fill="#f6fff8"
        fill-opacity="0.08"
      />

      <path
        d="M108 362
           C126 358 138 336 152 298
           C166 260 184 230 198 228
           C214 226 224 278 238 300
           C252 322 268 330 282 284
           C296 238 318 186 334 188
           C350 190 366 256 380 274
           C392 290 398 288 404 284"
        fill="none"
        stroke="url(#lineMain)"
        stroke-width="10"
        stroke-linecap="round"
        stroke-linejoin="round"
      />

      <path
        d="M108 338
           C126 336 138 314 152 286
           C166 258 182 246 196 252
           C210 258 224 288 238 282
           C252 276 266 246 282 232
           C298 218 316 214 332 226
           C348 238 364 258 380 252
           C392 248 400 236 404 228"
        fill="none"
        stroke="url(#lineForecast)"
        stroke-width="7"
        stroke-linecap="round"
        stroke-linejoin="round"
        stroke-dasharray="12 14"
        opacity="0.96"
      />
    </g>
  </g>

  <path
    d="M292 150 L248 228 H286 L238 330 L324 230 H284 L340 150 Z"
    fill="#ffd166"
    stroke="#fff4cf"
    stroke-width="4"
    stroke-linejoin="round"
    opacity="0.95"
  />

  <g transform="translate(94 432)">
    <rect x="0" y="0" width="324" height="66" rx="18" fill="#0c1f2d" fill-opacity="0.72" stroke="#d3f6ff" stroke-opacity="0.18" stroke-width="2"/>
    <text x="28" y="42" font-family="'Avenir Next', 'Segoe UI', sans-serif" font-size="36" font-weight="700" letter-spacing="2" fill="#f5f7fa">elcf<tspan fill="#ffd166">4</tspan>R</text>
    <circle cx="258" cy="33" r="18" fill="#14324a" stroke="#c8f1ff" stroke-opacity="0.3" stroke-width="2"/>
    <text x="248" y="41" font-family="'Avenir Next', 'Segoe UI', sans-serif" font-size="24" font-weight="700" fill="#9be7ff">R</text>
  </g>
</svg>
